<?xml version="1.0" encoding="UTF-8" standalone="no"?>
<!-- Generator: Adobe Illustrator 21.1.0, SVG Export Plug-In . SVG Version: 6.00 Build 0)  -->

<svg
   version="1.1"
   id="Calque_1"
   x="0px"
   y="0px"
   viewBox="0 0 378.13795 409.09999"
   xml:space="preserve"
   sodipodi:docname="logo_oui.svg"
   width="378.13794"
   height="409.10001"
   inkscape:version="1.3.2 (091e20ef0f, 2023-11-25)"
   xmlns:inkscape="http://www.inkscape.org/namespaces/inkscape"
   xmlns:sodipodi="http://sodipodi.sourceforge.net/DTD/sodipodi-0.dtd"
   xmlns="http://www.w3.org/2000/svg"
   xmlns:svg="http://www.w3.org/2000/svg"><defs
   id="defs5" /><sodipodi:namedview
   id="namedview5"
   pagecolor="#ffffff"
   bordercolor="#000000"
   borderopacity="0.25"
   inkscape:showpageshadow="2"
   inkscape:pageopacity="0.0"
   inkscape:pagecheckerboard="0"
   inkscape:deskcolor="#d1d1d1"
   inkscape:zoom="0.9716118"
   inkscape:cx="181.1423"
   inkscape:cy="310.82373"
   inkscape:window-width="1519"
   inkscape:window-height="811"
   inkscape:window-x="26"
   inkscape:window-y="23"
   inkscape:window-maximized="0"
   inkscape:current-layer="Calque_1" />
<style
   type="text/css"
   id="style1">
	.st0{fill:#EB5E3A;}
	.st1{fill:#033852;}
	.st2{fill:#81C5AE;}
</style>
<g
   id="g5"
   transform="translate(-115.9953,-110)">
	<path
   class="st0"
   d="m 489.5,250.9 c -1.4,5.3 -16.2,40.5 -24.6,45 -3.5,-7.8 -7.8,-21.6 -7.8,-43.5 0,-8.8 1.2,-21.2 1.2,-28.6 0,-10.3 -25.9,-18.3 -25.9,-9.2 0,5.1 -2.3,13.8 -2.3,37.6 0,18.9 3.3,57.3 30,57.3 h 0.4 c 14.2,0 31,-48.5 33.5,-58.1 0.9,-3.4 -3,-5.6 -4.5,-0.5 m -23.2,-64.1 c 0,-7.8 -10.9,-20.1 -21,-20.1 -10.3,0 -19.1,-0.4 -19.1,10.1 0,10.2 40.1,28.5 40.1,10 M 416.4,279 c 0,-30.2 3.3,-34.9 3.3,-41.5 0,-10.1 -19.1,-11.9 -24,-11.9 -4.9,0 -5.8,5.3 -5.8,9 0,2.3 -0.4,8.8 -0.8,16.4 -5.1,16.4 -14.6,39.2 -18.7,48.7 -1.2,-4.9 -2.3,-12.3 -2.3,-24.4 0,-29.2 7.8,-53.8 7.8,-61.2 0,-7.4 -13.1,-13.6 -24,-13.6 -9,0 -3.3,6.2 -3.3,11.1 0,7.2 -5.1,42.7 -5.1,65.1 0,36.4 30.8,40.9 30.8,35.3 0,-2.1 -0.8,-3.5 -1.6,-5.8 L 388.3,267 c -0.2,3.7 -0.2,7 -0.2,10.1 0,23.2 15,32.3 28.1,32.3 8,0 0.2,-6.5 0.2,-30.4 M 306.7,182.3 c 0,45.4 -21.2,129 -42.5,129 -21,0 -29.6,-77 -29.6,-89.1 0,-9.9 0.8,-18.1 2.1,-25.7 3.3,1.6 6.8,2.5 10.7,2.5 11.9,0 6.8,-7.8 6.8,-18.9 0,-11.5 22.2,-53.8 36.2,-53.8 13.6,-0.1 16.3,36.5 16.3,56 M 277.9,110 c -30.6,0 -42.9,25.9 -48.1,46.6 -2.5,-0.4 -4.7,-0.6 -7.6,-0.6 -14.8,0 -20.3,32 -20.3,46 0,43.1 16.4,120 68.2,120 39.8,0 66.6,-101.7 66.6,-139.7 0,-37.6 -11.3,-72.3 -58.8,-72.3 M 162.1,262 c 5.2,0 3.2,22.7 -9.9,17.2 1.1,-9 4.6,-17.2 9.9,-17.2 m 19.3,18.2 c -0.6,1.7 -5.2,21.7 -18.3,21.7 -5.6,0 -11.9,-10.4 -11.1,-20.5 2.2,0.6 5,1.3 7.5,1.3 6.7,0 11.8,-5.6 11.8,-16.4 0,-5.8 -2.3,-10.5 -5.3,-11.9 -3.2,-1.5 -13,-2.2 -17.3,1.5 -4.1,3.7 -10.9,16 -10.9,29.4 0,10.3 8.5,23.1 22.8,23.1 16.1,0 22.1,-25.2 22.8,-27.2 0.8,-2.3 -1.3,-3 -2,-1 M 121.3,225 c 0.3,5 -6.2,47.7 -5.2,66.4 0.8,18.7 11,28.3 16.7,28 5.9,-0.2 -2.7,-1.8 -3.8,-24.6 -0.6,-14.9 5.6,-60.5 5.3,-67 -0.2,-6.3 -13.3,-11.1 -13,-2.8"
   id="path1" />
	<path
   class="st1"
   d="m 356.3,370.5 c 0,0 0.8,1.4 1.4,2.1 l 5.1,6.8 h 3 l -8,-10.9 7.4,-10.1 h -3 l -4.6,6.2 c -0.3,0.5 -1.3,2 -1.3,2 v 0 c 0,0 -1,-1.5 -1.3,-2 l -4.6,-6.2 h -3 l 7.4,10.1 -8,10.9 h 3 l 5.1,-6.8 c 0.5,-0.8 1.4,-2.1 1.4,-2.1 z m -14.4,-12 v 12.3 c 0,4.5 -2.1,6.8 -6.2,6.8 -4,0 -6.1,-2.2 -6.1,-6.8 v -12.3 h -2.5 v 12.3 c 0,5.9 3.1,9.1 8.6,9.1 5.5,0 8.6,-3.2 8.6,-9.1 v -12.3 z m -30.1,18.6 v -7.7 h 9.2 v -2.2 h -9.2 v -6.5 h 11.5 v -2.3 h -14 v 20.9 h 14.1 V 377 h -11.6 z m -8,-18.6 h -2.5 v 20.9 h 2.5 z m -17.1,18.6 v -18.6 h -2.5 v 20.9 H 298 v -2.3 z m -14.1,-13.5 c -0.7,-3.3 -3.7,-5.6 -7.5,-5.6 -4.2,0 -7.3,2.4 -7.3,5.7 0,3.6 3.5,4.7 5.9,5.4 3,0.9 6.6,1.6 6.6,4.6 0,2.2 -1.9,3.8 -5,3.8 -3.4,0 -5.4,-2.2 -5.7,-4.6 l -2.4,0.6 c 0.7,3.5 3.5,6.2 8,6.2 4.6,0 7.7,-2.6 7.7,-6.1 0,-4.1 -4,-5.4 -6.9,-6.2 -2.8,-0.8 -5.7,-1.6 -5.7,-3.9 0,-2.1 1.9,-3.4 4.7,-3.4 2.6,0 4.8,1.5 5.2,4.1 z m -30,5.8 v -8.6 h 4.2 c 3.2,0 5.1,1.6 5.1,4.3 0,2.5 -1.7,4.3 -5.1,4.3 z m 12.5,10 -5.1,-8.3 c 2.8,-0.9 4.4,-3 4.4,-6 0,-4 -2.9,-6.6 -7.8,-6.6 h -6.4 v 20.9 h 2.5 v -7.8 h 3.9 c 0.4,0 0.7,0 1.1,0 l 4.7,7.8 z m -31.3,-2.3 v -7.7 h 9.2 v -2.2 h -9.2 v -6.5 h 11.5 v -2.3 h -14 v 20.9 h 14.1 V 377 h -11.6 z m -8,-18.6 h -2.5 v 20.9 h 2.5 z m -22.3,0 v 2.3 h 7 v 18.6 h 2.4 v -18.6 h 7 v -2.3 z"
   id="path2" />
	<path
   class="st2"
   d="m 473.2,385.2 c -3.4,0 -10.7,0.9 -19,1.7 2.1,-14 5.6,-19.1 14.8,-19.1 2.5,0 -1.9,-6.7 -8.3,-6.7 -11.3,0 -15.6,9 -17.8,26.8 -3.4,0.2 -6.6,0.3 -9.6,0.3 -6.7,0 -9.1,-2.4 -9.1,-0.2 0,3 2,8.5 8.2,8.5 3,0 6.3,-0.3 9.6,-0.8 -0.8,9.3 -2,19.4 -2,33.6 0,15.1 5.6,32.9 13.9,32.9 4.5,0 -2.5,-1.5 -2.5,-30.7 0,-12.9 1.2,-28 2.1,-37.6 7.2,-1.3 14.1,-2.5 19.2,-2.5 5.5,0 5.7,1 7.3,1 1.5,0 0.2,-7.2 -6.8,-7.2 m -29.6,37.2 c -0.6,2.2 -6.7,16.7 -10.1,18.5 -1.4,-3.2 -3.2,-8.9 -3.2,-17.9 0,-3.6 0.5,-8.7 0.5,-11.7 0,-4.2 -10.6,-7.5 -10.6,-3.8 0,2.1 -0.9,5.7 -0.9,15.5 0,7.8 1.4,23.6 12.3,23.6 h 0.2 c 5.8,0 12.8,-19.9 13.8,-23.9 0.2,-1.5 -1.4,-2.4 -2,-0.3 m -9.5,-26.3 c 0,-3.2 -4.5,-8.3 -8.6,-8.3 -4.2,0 -7.9,-0.2 -7.9,4.1 0,4.2 16.5,11.8 16.5,4.2 m 16.2,-7.9 c -6.6,0 -20,0.6 -34.6,0.7 l 0.5,-2.9 c 0.7,-4.7 1.2,-8.2 1.2,-9.9 0,-6.3 -10.3,-11.6 -10.3,-3.5 0,1.9 -1,6.9 -2.3,13.6 l -0.5,2.5 c -10.9,-0.3 -21.6,-1.1 -29.9,-2.8 -1.2,-0.3 -2.1,0.8 -0.3,2 4.2,2.9 10.2,6.9 18.6,7.9 2.9,0.3 6.4,0.5 10.3,0.4 -1.7,10 -3.3,21 -3.3,29.7 0,18.4 7.6,28.3 12.7,28.3 5.1,0 -2.3,-1.9 -2.3,-24.3 0,-8.3 2.4,-22.3 4.5,-34.2 13.8,-1.1 28.7,-3.5 35.6,-5.6 2.1,-0.5 2.6,-1.8 0.1,-1.9 m -44.8,28.5 c -0.6,1.9 -9.9,28.6 -11.7,28.6 -2.8,0 -2.3,-16.2 -2.5,-22 v -1.4 c 0,-1.8 -2.1,-4.1 -7.3,-4.1 -5.1,0 -5.1,3 -5.1,4.7 0,4.4 -5.3,22.1 -7.9,22.1 -2.5,0 -2.9,-5.1 -2.9,-8.2 0,-15.6 7.4,-30.6 15.6,-30.6 3.1,0 3.7,6.8 3.7,8.8 0,1.9 3,0.8 3,-0.3 0,-12.3 -6.2,-12.3 -14.9,-12.3 -12.5,0 -18.6,18.1 -18.6,29.2 0,11.7 5.4,16.2 12.1,16.2 6.7,0 9.9,-12.8 10.6,-12.8 0.6,0 2.5,16.5 10.5,16.5 0.6,0 1.1,-0.1 1.4,-0.3 7.2,-2.5 15.5,-31.6 15.9,-33.6 0.6,-2.2 -1.4,-2.3 -1.9,-0.5 m -59.4,-17.5 c -3.9,0 -11,19 -13.2,30.1 -0.2,-2.4 -0.3,-5.1 -0.3,-8.2 0,-6.4 1.7,-10.6 1.7,-14.1 0,-3.5 -2.6,-6.5 -8.3,-6.5 -2.9,0 -4,12.6 -4,21.2 0,32.6 13.9,28.4 13.9,26.1 0,-1.4 -1.3,-3 -2.2,-9.2 0.7,-12 10.5,-31.5 10.5,-31.5 0,0 -1.4,7.3 -1.4,9.1 0,1.8 3.1,3.5 7.4,3.5 4.2,0 6,-6.8 6,-13.8 0,-7 -5.5,-6.7 -10.1,-6.7 m -29.5,-12.5 c -0.9,-2.1 -4.5,-4.2 -6.2,-3.6 -1.6,0.5 -5.2,5.8 -10,7.4 -4.6,1.5 -4.7,3.5 -2.6,4.1 2.3,0.7 5.3,0.7 9,-0.5 4.8,-1.8 10.1,-6.6 9.8,-7.4 m -6.4,20 c 4.3,0 2.6,18.7 -8.1,14.1 0.8,-7.3 3.7,-14.1 8.1,-14.1 m 15.9,15 c -0.5,1.4 -4.3,17.8 -15,17.8 -4.6,0 -9.8,-8.5 -9.1,-16.9 1.8,0.5 4.1,1.1 6.2,1.1 5.5,0 9.7,-4.6 9.7,-13.5 0,-4.7 -1.9,-8.6 -4.4,-9.8 -2.6,-1.3 -10.7,-1.8 -14.2,1.3 -3.4,3 -9,13.2 -9,24.2 0,8.5 7,19 18.8,19 13.3,0 18.2,-20.7 18.8,-22.4 0.4,-1.8 -1.3,-2.4 -1.8,-0.8 M 279,402.5 c -1.1,-0.8 -9.5,-2.4 -12.3,0.4 -2.1,2.2 -4.8,10.9 -6.8,19.1 0.6,-9.4 1.2,-16.2 1.2,-18.1 0,-3.5 -4.3,-3.5 -7.5,-3.5 -6.2,0 -9.6,75.1 7.6,75.1 4.2,0 -2.2,-4.6 -2.2,-26.5 0,-4.5 0.1,-9 0.3,-13.2 1.8,-8 7.2,-30 12.5,-30 2.9,0 4.4,38.1 -6.1,38.1 -4.7,0 0,3.1 4.9,3.1 18.6,0.2 19.1,-37.3 8.4,-44.5 m -46.8,40.6 c -5.2,0 -2.9,-13.8 -3,-24 3,-2.7 1.9,-11.6 4.6,-11.6 9.2,0.1 3.8,35.6 -1.6,35.6 m 2.3,-40.7 c -4,0 -9.1,0.6 -11.2,6.3 -6.2,1.4 -7.7,11.2 -7.7,19.1 0,8.5 2.4,19.9 12.3,19.9 11.1,0 15.4,-14.7 15.4,-27.6 0.1,-13 -3.9,-17.7 -8.8,-17.7 m -35.1,40.7 c -5.2,0 -2.9,-13.8 -3,-24 3,-2.7 1.9,-11.6 4.6,-11.6 9.1,0.1 3.7,35.6 -1.6,35.6 m 2.2,-40.7 c -4,0 -9.1,0.6 -11.2,6.3 -6.2,1.4 -7.7,11.2 -7.7,19.1 0,8.5 2.4,19.9 12.3,19.9 11.1,0 15.4,-14.7 15.4,-27.6 0.1,-13 -3.9,-17.7 -8.8,-17.7 m -71,9.9 c 0,24.1 8.4,39.7 27.4,39.7 16,0 19,-21.1 19,-22.7 0,-6 -8.2,-9.3 -8.2,-5.9 0,3.4 -6.6,24.3 -10.6,24.3 -4,0 -11.6,-10.1 -11.6,-33.3 0,-25 13,-46.8 23.8,-46.8 7.8,0 -6.3,29.3 -1.4,29.3 6.8,0 22.3,-35 2.3,-35 -21.3,0 -40.7,26.3 -40.7,50.4"
   id="path3" />
	<path
   class="st1"
   d="m 422.9,517.2 v -4.6 h 5.5 v -1.3 h -5.5 v -3.9 h 6.9 V 506 h -8.4 v 12.5 h 8.5 v -1.4 h -7 z m -6.3,-11.1 v 6.6 c 0,1.8 0.1,3.5 0,3.5 v 0 c 0,0 -0.9,-1.3 -1.9,-2.6 l -5.6,-7.5 h -1.4 v 12.5 h 1.5 V 512 c 0,-2 -0.1,-3.6 0,-3.6 v 0 c 0,0 0.8,1.1 1.9,2.6 l 5.6,7.5 h 1.4 V 506 h -1.5 z m -12.1,0 H 403 v 12.5 h 1.5 z m -3.6,3 c -1.1,-2 -3.2,-3.3 -5.7,-3.3 -3.6,0 -6.5,2.7 -6.5,6.5 0,3.8 2.9,6.5 6.5,6.5 2.6,0 4.8,-1.4 5.9,-3.6 l -1.4,-0.4 c -0.8,1.6 -2.5,2.6 -4.4,2.6 -2.8,0 -5,-2 -5,-5.1 0,-3 2.1,-5.1 5,-5.1 1.8,0 3.3,0.9 4.2,2.2 z m -13.9,0.1 c -0.4,-2 -2.2,-3.3 -4.5,-3.3 -2.5,0 -4.3,1.4 -4.3,3.4 0,2.2 2.1,2.8 3.5,3.3 1.8,0.6 3.9,0.9 3.9,2.8 0,1.3 -1.1,2.3 -3,2.3 -2,0 -3.2,-1.3 -3.4,-2.7 l -1.4,0.4 c 0.4,2.1 2.1,3.7 4.8,3.7 2.8,0 4.6,-1.5 4.6,-3.6 0,-2.4 -2.4,-3.2 -4.1,-3.7 -1.7,-0.5 -3.4,-0.9 -3.4,-2.3 0,-1.3 1.2,-2 2.8,-2 1.6,0 2.9,0.9 3.1,2.4 z m -11.4,-3.1 h -1.5 v 12.5 h 1.5 z m -10.6,6.6 v -5.2 h 2.3 c 2,0 3.2,0.9 3.2,2.6 0,1.6 -1.1,2.6 -3.2,2.6 z m -1.5,-6.6 v 12.5 h 1.5 v -4.5 h 2.4 c 2.9,0 4.7,-1.5 4.7,-4 0,-2.5 -1.8,-4 -4.7,-4 z M 354,514 c 0.9,0 1.7,-0.8 1.7,-1.7 0,-0.9 -0.8,-1.7 -1.7,-1.7 -0.9,0 -1.7,0.8 -1.7,1.7 0,0.9 0.8,1.7 1.7,1.7 m -11,-7.9 v 6.6 c 0,1.8 0.1,3.5 0,3.5 v 0 c 0,0 -0.9,-1.3 -1.9,-2.6 l -5.6,-7.5 h -1.4 v 12.5 h 1.5 V 512 c 0,-2 -0.1,-3.6 0,-3.6 v 0 c 0,0 0.8,1.1 1.9,2.6 l 5.6,7.5 h 1.4 V 506 H 343 Z m -22.6,6.3 c 0,-3 2.1,-5.1 5,-5.1 2.8,0 5,2 5,5.1 0,3 -2.2,5.1 -5,5.1 -2.8,-0.1 -5,-2.1 -5,-5.1 m -1.5,0 c 0,3.8 2.9,6.5 6.5,6.5 3.6,0 6.5,-2.7 6.5,-6.5 0,-3.8 -2.9,-6.5 -6.5,-6.5 -3.6,-0.1 -6.5,2.7 -6.5,6.5 m -2.3,-6.3 h -1.5 v 12.5 h 1.5 z m -6.3,0 v 6.6 c 0,1.8 0.1,3.5 0,3.5 v 0 c 0,0 -0.9,-1.3 -1.9,-2.6 l -5.6,-7.5 h -1.4 v 12.5 h 1.5 V 512 c 0,-2 -0.1,-3.6 0,-3.6 v 0 c 0,0 0.8,1.1 1.9,2.6 l 5.6,7.5 h 1.4 V 506 h -1.5 z m -13,0 v 7.4 c 0,2.7 -1.3,4.1 -3.7,4.1 -2.4,0 -3.7,-1.3 -3.7,-4.1 v -7.4 h -1.5 v 7.3 c 0,3.5 1.9,5.5 5.1,5.5 3.3,0 5.2,-1.9 5.2,-5.5 v -7.3 z m -18,11.1 v -4.6 h 5.5 v -1.3 h -5.5 v -3.9 h 6.9 V 506 h -8.4 v 12.5 h 8.5 v -1.4 h -7 z m 5.3,-13.6 -0.5,-1 -3.8,2.1 0.5,0.8 z m -16.7,9 v -5.2 h 2.5 c 1.9,0 3,1 3,2.6 0,1.5 -1,2.6 -3,2.6 z m 7.4,6 -3,-5 c 1.7,-0.5 2.6,-1.8 2.6,-3.6 0,-2.4 -1.8,-4 -4.7,-4 h -3.8 v 12.5 h 1.5 V 514 h 2.3 c 0.2,0 0.4,0 0.6,0 l 2.8,4.7 h 1.7 z m -23.2,-1.4 v -4.6 h 5.5 v -1.3 h -5.5 v -3.9 H 259 V 506 h -8.4 v 12.5 h 8.5 v -1.4 h -7 z m -14,0 v -9.8 h 3.8 c 2.7,0 5,1.9 5,5 0,3 -2.3,4.8 -4.9,4.8 z m -1.5,-11.1 v 12.5 h 5.4 c 3.5,0 6.4,-2.5 6.4,-6.2 0,-3.8 -2.9,-6.3 -6.5,-6.3 z m -7,3.1 c -0.4,-2 -2.2,-3.3 -4.5,-3.3 -2.5,0 -4.3,1.4 -4.3,3.4 0,2.2 2.1,2.8 3.5,3.3 1.8,0.6 3.9,0.9 3.9,2.8 0,1.3 -1.1,2.3 -3,2.3 -2,0 -3.2,-1.3 -3.4,-2.7 l -1.4,0.4 c 0.4,2.1 2.1,3.7 4.8,3.7 2.8,0 4.6,-1.5 4.6,-3.6 0,-2.4 -2.4,-3.2 -4.1,-3.7 -1.7,-0.5 -3.4,-0.9 -3.4,-2.3 0,-1.3 1.2,-2 2.8,-2 1.6,0 2.9,0.9 3.1,2.4 z m -17.4,8 v -4.6 h 5.5 v -1.3 h -5.5 v -3.9 h 6.9 V 506 h -8.4 v 12.5 h 8.5 v -1.4 h -7 z m -10.2,0 v -11.1 h -1.5 v 12.5 h 8.2 v -1.4 z m -10.2,0 v -11.1 h -1.5 v 12.5 h 8.2 v -1.4 z m -12,-3.2 2,-4.7 c 0.3,-0.6 0.6,-1.5 0.6,-1.5 v 0 c 0,0 0.3,0.9 0.6,1.5 l 2,4.7 z m 7.2,4.6 h 1.6 l -5.4,-12.5 h -1.3 l -5.4,12.5 h 1.6 l 1.4,-3.3 h 6.3 z m -11.7,-9.4 c -0.4,-2 -2.2,-3.3 -4.5,-3.3 -2.5,0 -4.3,1.4 -4.3,3.4 0,2.2 2.1,2.8 3.5,3.3 1.8,0.6 3.9,0.9 3.9,2.8 0,1.3 -1.1,2.3 -3,2.3 -2,0 -3.2,-1.3 -3.4,-2.7 l -1.4,0.4 c 0.4,2.1 2.1,3.7 4.8,3.7 2.8,0 4.6,-1.5 4.6,-3.6 0,-2.4 -2.4,-3.2 -4.1,-3.7 -1.7,-0.5 -3.4,-0.9 -3.4,-2.3 0,-1.3 1.2,-2 2.8,-2 1.6,0 2.9,0.9 3.1,2.4 z"
   id="path4" />
	<path
   class="st1"
   d="m 443.2,495.8 v -4.6 h 5.5 v -1.3 h -5.5 V 486 h 6.9 v -1.4 h -8.4 v 12.5 h 8.5 v -1.4 h -7 z m -6.3,-11.2 v 6.6 c 0,1.8 0.1,3.5 0,3.5 v 0 c 0,0 -0.9,-1.3 -1.9,-2.6 l -5.6,-7.5 H 428 v 12.5 h 1.5 v -6.6 c 0,-2 -0.1,-3.6 0,-3.6 v 0 c 0,0 0.8,1.1 1.9,2.6 l 5.6,7.5 h 1.4 v -12.5 h -1.5 z m -12.1,0 h -1.5 v 12.5 h 1.5 z m -4,3.1 c -0.4,-2 -2.2,-3.3 -4.5,-3.3 -2.5,0 -4.3,1.4 -4.3,3.4 0,2.2 2.1,2.8 3.5,3.3 1.8,0.6 3.9,0.9 3.9,2.8 0,1.3 -1.1,2.3 -3,2.3 -2,0 -3.2,-1.3 -3.4,-2.7 l -1.4,0.4 c 0.4,2.1 2.1,3.7 4.8,3.7 2.8,0 4.6,-1.5 4.6,-3.6 0,-2.4 -2.4,-3.2 -4.1,-3.7 -1.7,-0.5 -3.4,-0.9 -3.4,-2.3 0,-1.3 1.2,-2 2.8,-2 1.6,0 2.9,0.9 3.1,2.4 z m -11.5,-3.1 h -1.5 v 12.5 h 1.5 z m -5.7,0 v 7.4 c 0,2.7 -1.3,4.1 -3.7,4.1 -2.4,0 -3.7,-1.3 -3.7,-4.1 v -7.4 h -1.5 v 7.3 c 0,3.5 1.9,5.5 5.1,5.5 3.3,0 5.2,-1.9 5.2,-5.5 v -7.3 z m -10.7,3.1 c -1.1,-2 -3.2,-3.3 -5.7,-3.3 -3.6,0 -6.5,2.7 -6.5,6.5 0,3.8 2.9,6.5 6.5,6.5 2.6,0 4.8,-1.4 5.9,-3.6 l -1.4,-0.4 c -0.8,1.6 -2.5,2.6 -4.4,2.6 -2.8,0 -5,-2 -5,-5.1 0,-3 2.1,-5.1 5,-5.1 1.8,0 3.3,0.9 4.2,2.2 z m -20.8,4.8 c 0.9,0 1.7,-0.8 1.7,-1.7 0,-0.9 -0.8,-1.7 -1.7,-1.7 -0.9,0 -1.7,0.8 -1.7,1.7 0,0.9 0.8,1.7 1.7,1.7 m -14.7,2.8 c 0,0 0,0.4 0,1.9 h 1.3 v -6.5 h -5.1 v 1.2 h 3.8 v 1.6 c -0.5,1.1 -2.1,2.5 -4.5,2.5 -2.8,0 -5,-2 -5,-5.1 0,-3 2.1,-5.1 5,-5.1 1.8,0 3.3,0.9 4.2,2.2 l 1.5,-0.4 c -1.1,-2 -3.1,-3.2 -5.7,-3.3 -3.6,0 -6.5,2.7 -6.5,6.5 0,3.8 2.9,6.5 6.5,6.5 2.4,0.1 3.9,-1.3 4.5,-2 z m -14.9,-10.7 v 6.6 c 0,1.8 0.1,3.5 0,3.5 v 0 c 0,0 -0.9,-1.3 -1.9,-2.6 l -5.6,-7.5 h -1.4 v 12.5 h 1.5 v -6.6 c 0,-2 -0.1,-3.6 0,-3.6 v 0 c 0,0 0.8,1.1 1.9,2.6 l 5.6,7.5 h 1.4 v -12.5 h -1.5 z m -12.1,0 h -1.5 v 12.5 h 1.5 z m -3.8,12.6 -5.5,-7.4 5.1,-5.1 h -1.8 l -4.2,4.2 c -1,1 -2.1,2.1 -2.1,2.1 v 0 c 0,0 0,-1 0,-3 v -3.3 h -1.5 v 12.5 h 1.5 v -4.4 l 2,-2 4.7,6.4 z m -19.9,-6 V 486 h 2.5 c 1.9,0 3,1 3,2.6 0,1.5 -1,2.6 -3,2.6 z m 7.4,6 -3,-5 c 1.7,-0.5 2.6,-1.8 2.6,-3.6 0,-2.4 -1.7,-4 -4.7,-4 h -3.8 v 12.5 h 1.5 v -4.7 h 2.3 c 0.2,0 0.4,0 0.6,0 l 2.8,4.7 h 1.7 z m -22.7,-6.3 c 0,-3 2.1,-5.1 5,-5.1 2.8,0 5,2 5,5.1 0,3 -2.2,5.1 -5,5.1 -2.8,0 -5,-2.1 -5,-5.1 m -1.5,0 c 0,3.8 2.9,6.5 6.5,6.5 3.6,0 6.5,-2.7 6.5,-6.5 0,-3.8 -2.9,-6.5 -6.5,-6.5 -3.6,0 -6.5,2.7 -6.5,6.5 m -2.1,-6.3 -2.8,8.5 c -0.3,1.1 -0.5,1.8 -0.5,1.8 v 0 c 0,0 -0.2,-0.8 -0.5,-1.8 l -2.2,-6.8 h -1.3 l -2.2,6.8 c -0.4,1.1 -0.5,1.8 -0.5,1.8 v 0 c 0,0 -0.2,-0.8 -0.5,-1.8 l -2.8,-8.5 H 273 l 4.2,12.5 h 1.3 l 2.1,-6.6 c 0.6,-1.8 0.7,-2.5 0.7,-2.5 v 0 c 0,0 0.1,0.7 0.7,2.5 l 2.1,6.6 h 1.3 l 4.2,-12.5 z m -27.1,6.3 c 0,-3 2.1,-5.1 5,-5.1 2.8,0 5,2 5,5.1 0,3 -2.2,5.1 -5,5.1 -2.8,0 -5,-2.1 -5,-5.1 m -1.5,0 c 0,3.8 2.9,6.5 6.5,6.5 3.6,0 6.5,-2.7 6.5,-6.5 0,-3.8 -2.9,-6.5 -6.5,-6.5 -3.6,0 -6.5,2.7 -6.5,6.5 m -1.5,-3.2 c -1.1,-2 -3.2,-3.3 -5.7,-3.3 -3.6,0 -6.5,2.7 -6.5,6.5 0,3.8 2.9,6.5 6.5,6.5 2.6,0 4.8,-1.4 5.9,-3.6 l -1.4,-0.4 c -0.8,1.6 -2.5,2.6 -4.4,2.6 -2.8,0 -5,-2 -5,-5.1 0,-3 2.1,-5.1 5,-5.1 1.8,0 3.3,0.9 4.2,2.2 z m -20.8,4.8 c 0.9,0 1.7,-0.8 1.7,-1.7 0,-0.9 -0.8,-1.7 -1.7,-1.7 -0.9,0 -1.7,0.8 -1.7,1.7 0,0.9 0.7,1.7 1.7,1.7 m -13.8,-0.7 c 0,0 0.5,0.8 0.8,1.3 l 3.1,4.1 h 1.8 l -4.8,-6.5 4.4,-6 h -1.8 l -2.8,3.7 c -0.2,0.3 -0.8,1.2 -0.8,1.2 v 0 c 0,0 -0.6,-0.9 -0.8,-1.2 l -2.8,-3.7 h -1.8 l 4.4,6 -4.8,6.5 h 1.8 l 3.1,-4.1 c 0.4,-0.5 0.9,-1.3 1,-1.3 z m -8.7,-7.2 v 7.4 c 0,2.7 -1.3,4.1 -3.7,4.1 -2.4,0 -3.7,-1.3 -3.7,-4.1 v -7.4 h -1.5 v 7.3 c 0,3.5 1.9,5.5 5.1,5.5 3.3,0 5.2,-1.9 5.2,-5.5 v -7.3 z m -18.3,8 2,-4.7 c 0.3,-0.6 0.6,-1.5 0.6,-1.5 v 0 c 0,0 0.3,0.9 0.6,1.5 l 2,4.7 z m 7.1,4.6 h 1.6 l -5.4,-12.5 H 198 l -5.4,12.5 h 1.6 l 1.4,-3.3 h 6.3 z m -19.1,-1.4 v -4.6 h 5.5 v -1.3 h -5.5 V 486 h 6.9 v -1.4 h -8.4 v 12.5 h 8.5 v -1.4 h -7 z m -11.4,-4.6 V 486 h 2.5 c 1.9,0 3,1 3,2.6 0,1.5 -1,2.6 -3,2.6 z m 7.5,6 -3,-5 c 1.7,-0.5 2.6,-1.8 2.6,-3.6 0,-2.4 -1.8,-4 -4.7,-4 h -3.8 v 12.5 h 1.5 v -4.7 h 2.3 c 0.2,0 0.4,0 0.6,0 l 2.8,4.7 h 1.7 z M 167,484.6 v 7.4 c 0,2.7 -1.3,4.1 -3.7,4.1 -2.4,0 -3.7,-1.3 -3.7,-4.1 v -7.4 h -1.5 v 7.3 c 0,3.5 1.9,5.5 5.1,5.5 3.3,0 5.2,-1.9 5.2,-5.5 v -7.3 z m -18.6,11.3 V 491 h 3.3 c 1.5,0 2.8,1 2.8,2.5 0,1.5 -1.2,2.4 -2.7,2.4 z m 0,-6.1 v -3.9 h 3 c 1.5,0 2.4,0.8 2.4,2 0,1.1 -1,2 -2.4,2 h -3 z m -1.5,-5.2 v 12.5 h 5 c 2.6,0 4.1,-1.5 4.1,-3.7 0,-1.8 -1.7,-3 -2.9,-3.2 v 0 c 1,-0.2 2.1,-1.3 2.1,-2.6 0,-1.8 -1.5,-3.1 -3.6,-3.1 h -4.7 z"
   id="path5" />
</g>
</svg>
