<?xml version="1.0" encoding="UTF-8" standalone="no"?>
<!-- Generator: Adobe Illustrator 21.1.0, SVG Export Plug-In . SVG Version: 6.00 Build 0)  -->

<svg
   version="1.1"
   id="Calque_1"
   x="0px"
   y="0px"
   viewBox="0 0 320.00001 319.99999"
   xml:space="preserve"
   sodipodi:docname="oui.svg"
   width="320"
   height="320"
   inkscape:version="1.3.2 (091e20ef0f, 2023-11-25)"
   xmlns:inkscape="http://www.inkscape.org/namespaces/inkscape"
   xmlns:sodipodi="http://sodipodi.sourceforge.net/DTD/sodipodi-0.dtd"
   xmlns="http://www.w3.org/2000/svg"
   xmlns:svg="http://www.w3.org/2000/svg"><defs
   id="defs5" /><sodipodi:namedview
   id="namedview5"
   pagecolor="#ffffff"
   bordercolor="#000000"
   borderopacity="0.25"
   inkscape:showpageshadow="2"
   inkscape:pageopacity="0.0"
   inkscape:pagecheckerboard="0"
   inkscape:deskcolor="#d1d1d1"
   inkscape:zoom="0.9716118"
   inkscape:cx="95.71724"
   inkscape:cy="310.82373"
   inkscape:window-width="1519"
   inkscape:window-height="811"
   inkscape:window-x="26"
   inkscape:window-y="23"
   inkscape:window-maximized="0"
   inkscape:current-layer="g5" />
<style
   type="text/css"
   id="style1">
	.st0{fill:#EB5E3A;}
	.st1{fill:#033852;}
	.st2{fill:#81C5AE;}
</style>
<g
   id="g5"
   transform="translate(-201.9,-110)">
	<path
   class="st0"
   d="m 503.38339,304.9 c -1.4,5.3 -16.2,40.5 -24.6,45 -3.5,-7.8 -7.8,-21.6 -7.8,-43.5 0,-8.8 1.2,-21.2 1.2,-28.6 0,-10.3 -25.9,-18.3 -25.9,-9.2 0,5.1 -2.3,13.8 -2.3,37.6 0,18.9 3.3,57.3 30,57.3 h 0.4 c 14.2,0 31,-48.5 33.5,-58.1 0.9,-3.4 -3,-5.6 -4.5,-0.5 m -23.2,-64.1 c 0,-7.8 -10.9,-20.1 -21,-20.1 -10.3,0 -19.1,-0.4 -19.1,10.1 0,10.2 40.1,28.5 40.1,10 m -49.9,92.2 c 0,-30.2 3.3,-34.9 3.3,-41.5 0,-10.1 -19.1,-11.9 -24,-11.9 -4.9,0 -5.8,5.3 -5.8,9 0,2.3 -0.4,8.8 -0.8,16.4 -5.1,16.4 -14.6,39.2 -18.7,48.7 -1.2,-4.9 -2.3,-12.3 -2.3,-24.4 0,-29.2 7.8,-53.8 7.8,-61.2 0,-7.4 -13.1,-13.6 -24,-13.6 -9,0 -3.3,6.2 -3.3,11.1 0,7.2 -5.1,42.7 -5.1,65.1 0,36.4 30.8,40.9 30.8,35.3 0,-2.1 -0.8,-3.5 -1.6,-5.8 l 15.6,-39.2 c -0.2,3.7 -0.2,7 -0.2,10.1 0,23.2 15,32.3 28.1,32.3 8,0 0.2,-6.5 0.2,-30.4 m -109.7,-96.7 c 0,45.4 -21.2,129 -42.5,129 -21,0 -29.6,-77 -29.6,-89.1 0,-9.9 0.8,-18.1 2.1,-25.7 3.3,1.6 6.8,2.5 10.7,2.5 11.9,0 6.8,-7.8 6.8,-18.9 0,-11.5 22.2,-53.8 36.2,-53.8 13.6,-0.1 16.3,36.5 16.3,56 m -28.8,-72.3 c -30.6,0 -42.9,25.9 -48.1,46.6 -2.5,-0.4 -4.7,-0.6 -7.6,-0.6 -14.8,0 -20.3,32 -20.3,46 0,43.1 16.4,120 68.2,120 39.8,0 66.6,-101.7 66.6,-139.7 0,-37.6 -11.3,-72.3 -58.8,-72.3"
   id="path1"
   sodipodi:nodetypes="ccsssssscccssccsssccssssssccssccsscssccccssssc" />
	
	
	
	
</g>
</svg>
